<?xml version="1.0" standalone="no"?>
<!DOCTYPE svg PUBLIC "-//W3C//DTD SVG 20010904//EN"
 "http://www.w3.org/TR/2001/REC-SVG-20010904/DTD/svg10.dtd">
<svg version="1.0" xmlns="http://www.w3.org/2000/svg"
 width="1280.000000pt" height="1280.000000pt" viewBox="0 0 1280.000000 1280.000000"
 preserveAspectRatio="xMidYMid meet">
<metadata>
Created by potrace 1.15, written by Peter Selinger 2001-2017
</metadata>
<g transform="translate(0.000000,1280.000000) scale(0.100000,-0.100000)"
fill="#F0F6F6" stroke="none">
<path d="M6240 12334 c-401 -35 -693 -107 -1037 -254 -858 -368 -1668 -1163
-2270 -2230 -799 -1415 -1172 -3220 -997 -4825 205 -1890 1151 -3398 2580
-4113 465 -233 919 -363 1474 -424 152 -16 691 -16 835 0 563 65 999 188 1450
410 449 221 817 491 1183 867 785 806 1283 1942 1426 3250 34 310 40 440 40
820 0 376 -6 507 -40 835 -128 1255 -554 2509 -1193 3510 -255 400 -523 732
-844 1046 -190 187 -326 304 -512 439 -499 363 -1024 581 -1570 651 -111 14
-442 25 -525 18z"/>
</g>
</svg>
